<?xml version="1.0" encoding="UTF-8" standalone="no"?>
<svg width="108px" height="23px" viewBox="0 0 108 23" version="1.1" xmlns="http://www.w3.org/2000/svg" xmlns:xlink="http://www.w3.org/1999/xlink">
    <!-- Generator: Sketch 46.2 (44496) - http://www.bohemiancoding.com/sketch -->
    <title>Tuteria-logo-primary Copy</title>
    <desc>Created with Sketch.</desc>
    <defs></defs>
    <g id="Tutor-Application" stroke="none" stroke-width="1" fill="none" fill-rule="evenodd">
        <g id="Question-Type-2" transform="translate(-36.000000, -20.000000)" fill="#FFFFFF">
            <g id="Logo/White" transform="translate(36.000000, 20.000000)">
                <g id="Tuteria-logo-primary-Copy">
                    <path d="M11.3495594,14.6666251 C11.7084534,14.6666251 12.0673474,14.7461141 12.4006193,14.9054525 L18.8019096,17.9586593 L18.8019096,4.00824975 L4.05536584,4.00824975 L4.05536584,17.7942738 L10.3241216,14.8931957 C10.6505732,14.7419684 11.0000663,14.6666251 11.3495594,14.6666251 M20.4623705,22.899955 C20.1047668,22.899955 19.7460571,22.8206463 19.4111262,22.6613078 L11.3383152,18.8106876 L3.42144879,22.4745717 C2.67453635,22.8202858 1.81260087,22.7685548 1.11453635,22.3365024 C0.416471833,21.9044499 6.63030189e-05,21.1643551 6.63030189e-05,20.3566675 L6.63030189e-05,2.38602528 C6.63030189e-05,1.09401361 1.07508934,0.0428121485 2.39637967,0.0428121485 L20.4608958,0.0428121485 C21.7821861,0.0428121485 22.8572092,1.09401361 22.8572092,2.38602528 L22.8572092,20.5547592 C22.8572092,21.3678541 22.4363797,22.1106527 21.7311262,22.5416236 C21.3420018,22.7797301 20.9031078,22.899955 20.4623705,22.899955" id="Fill-1"></path>
                    <path d="M39.1370262,9.57222041 L35.6756576,9.57222041 L35.6756576,13.9860979 C35.6756576,14.3496815 35.6926315,14.6811576 35.7278849,14.9809783 C35.7627032,15.280573 35.8414794,15.539468 35.9639961,15.7574373 C36.08586,15.9751804 36.2740961,16.1434057 36.5278341,16.2614347 C36.7811368,16.3796898 37.1177857,16.4384782 37.5373455,16.4384782 C37.7471255,16.4384782 38.0226248,16.4160934 38.3634084,16.3701932 C38.7044096,16.3254236 38.9620646,16.2205089 39.1370262,16.0572581 L39.1370262,19.4629147 C38.6998397,19.6266178 38.245244,19.7353763 37.7734568,19.7898686 C37.3012343,19.844587 36.8381517,19.8717201 36.3837736,19.8717201 C35.7189628,19.8717201 35.1070321,19.798913 34.5479817,19.6537509 C33.9882784,19.5085888 33.4990821,19.2770529 33.0793046,18.9589173 C32.6597448,18.6412339 32.3320181,18.2279063 32.0959069,17.7191606 C31.8602309,17.2106411 31.7420664,16.5931369 31.7420664,15.8661958 L31.7420664,9.57222041 L29.2244898,9.57222041 L29.2244898,6.30245541 L31.7420664,6.30245541 L31.7420664,2.37900875 L35.6756576,2.37900875 L35.6756576,6.30245541 L39.1370262,6.30245541 L39.1370262,9.57222041 Z" id="Fill-4"></path>
                    <path d="M64.3411079,9.57222041 L60.8797392,9.57222041 L60.8797392,13.9860979 C60.8797392,14.3496815 60.8967131,14.6811576 60.9319666,14.9809783 C60.9667848,15.280573 61.0455611,15.539468 61.1680778,15.7574373 C61.2899416,15.9751804 61.4781778,16.1434057 61.7319157,16.2614347 C61.9852184,16.3796898 62.3218673,16.4384782 62.7414272,16.4384782 C62.9512071,16.4384782 63.2267065,16.4160934 63.56749,16.3701932 C63.9084912,16.3254236 64.1661462,16.2205089 64.3411079,16.0572581 L64.3411079,19.4629147 C63.9039213,19.6266178 63.4493256,19.7353763 62.9775384,19.7898686 C62.505316,19.844587 62.0422333,19.8717201 61.5878552,19.8717201 C60.9228268,19.8717201 60.3111137,19.798913 59.7520633,19.6537509 C59.19236,19.5085888 58.7031637,19.2770529 58.2833863,18.9589173 C57.8638264,18.6412339 57.5360997,18.2279063 57.2999885,17.7191606 C57.0643125,17.2106411 56.9461481,16.5931369 56.9461481,15.8661958 L56.9461481,9.57222041 L54.4285714,9.57222041 L54.4285714,6.30245541 L56.9461481,6.30245541 L56.9461481,2.37900875 L60.8797392,2.37900875 L60.8797392,6.30245541 L64.3411079,6.30245541 L64.3411079,9.57222041 Z" id="Fill-6"></path>
                    <path d="M74.1645786,11.3655096 C74.1824564,10.6703211 73.9578658,10.0760067 73.4912535,9.5818832 C73.0241944,9.08798742 72.4232747,8.84092568 71.6871537,8.84092568 C71.2379724,8.84092568 70.8430951,8.91424723 70.5020749,9.06066262 C70.1610547,9.20707802 69.8691986,9.39470832 69.6269535,9.62309811 C69.384485,9.85217102 69.1963205,10.1172216 69.0615661,10.4189329 C68.9270352,10.720872 68.8501604,11.0362457 68.8327295,11.3655096 L74.1645786,11.3655096 Z M77.5848372,17.2376093 C76.9385524,18.0792132 76.1213106,18.7288603 75.1342291,19.1860953 C74.1467007,19.6431026 73.123193,19.8717201 72.0641532,19.8717201 C71.0587469,19.8717201 70.1116671,19.7073159 69.2231373,19.378052 C68.334384,19.0487882 67.5622839,18.5778908 66.9070602,17.9649044 C66.2513896,17.3521458 65.7356132,16.6159701 65.3586138,15.755922 C64.9816144,14.8963293 64.7930029,13.9358625 64.7930029,12.8747494 C64.7930029,11.8140917 64.9816144,10.853625 65.3586138,9.99357687 C65.7356132,9.13398417 66.2513896,8.39780849 66.9070602,7.78436671 C67.5622839,7.17183576 68.334384,6.70071065 69.2231373,6.37121909 C70.1116671,6.04218295 71.0587469,5.87755102 72.0641532,5.87755102 C72.9973776,5.87755102 73.8456822,6.04218295 74.6090669,6.37121909 C75.3717812,6.70071065 76.018066,7.17183576 76.5479211,7.78436671 C77.0771059,8.39780849 77.4858385,9.13398417 77.7730017,9.99357687 C78.0603883,10.853625 78.2040816,11.8140917 78.2040816,12.8747494 L78.2040816,14.16448 L68.8327295,14.16448 C68.9940772,14.9512066 69.3442598,15.5773999 69.8828304,16.0439709 C70.421401,16.5107696 71.0855636,16.7437135 71.8757652,16.7437135 C72.5397043,16.7437135 73.1008457,16.592744 73.5587425,16.2910327 C74.0164158,15.9893213 74.415986,15.600626 74.7570062,15.1249468 L77.5848372,17.2376093 Z" id="Fill-8"></path>
                    <path d="M79.9533528,6.2004753 L84.0451436,6.2004753 L84.0451436,8.30093569 L84.0996978,8.30093569 C84.5361313,7.49306631 85.054283,6.88699666 85.6548318,6.48339719 C86.2547016,6.07935076 87.0089529,5.87755102 87.9187176,5.87755102 C88.154591,5.87755102 88.3911434,5.88671358 88.6279222,5.90436826 C88.8640218,5.92224642 89.0822386,5.95800274 89.2827988,6.01208418 L89.2827988,9.7014661 C88.9914659,9.61185182 88.7051129,9.54436176 88.4232873,9.49966636 C88.1412354,9.45497096 87.8456014,9.43217631 87.5368383,9.43217631 C86.754744,9.43217631 86.1360858,9.53989222 85.6819957,9.75532406 C85.2270002,9.9707559 84.8772648,10.2715559 84.6316578,10.6575007 C84.3860507,11.043669 84.2266891,11.505596 84.154252,12.0441756 C84.0811358,12.5832021 84.0451436,13.1754162 84.0451436,13.8219352 L84.0451436,19.2886297 L79.9533528,19.2886297 L79.9533528,6.2004753 Z" id="Fill-10"></path>
                    <path d="M90.1875789,19.2886297 L94.209145,19.2886297 L94.209145,6.18285855 L90.1875789,6.18285855 L90.1875789,19.2886297 Z M89.8658892,2.39251001 C89.8658892,1.74556836 90.0939196,1.19261339 90.5495354,0.734092661 C91.0053737,0.275795707 91.5548713,0.0466472303 92.1984732,0.0466472303 C92.8416301,0.0466472303 93.3913502,0.275795707 93.8471885,0.734092661 C94.3028043,1.19261339 94.5306122,1.74556836 94.5306122,2.39251001 C94.5306122,3.03989921 94.3028043,3.59285418 93.8471885,4.05115113 C93.3913502,4.50944809 92.8416301,4.73882034 92.1984732,4.73882034 C91.5548713,4.73882034 91.0053737,4.50944809 90.5495354,4.05115113 C90.0939196,3.59285418 89.8658892,3.03989921 89.8658892,2.39251001 L89.8658892,2.39251001 Z" id="Fill-12"></path>
                    <path d="M103.134729,13.6979091 C102.822896,13.6979091 102.434017,13.7115715 101.96718,13.7388963 C101.500115,13.7666765 101.051058,13.8445521 100.621149,13.9722956 C100.190783,14.1007222 99.8244711,14.2924512 99.5222124,14.5486212 C99.2201816,14.8047912 99.0692802,15.1616076 99.0692802,15.6188426 C99.0692802,16.1125106 99.2796759,16.478663 99.7009234,16.7163887 C100.121943,16.9541145 100.561654,17.0729774 101.019373,17.0729774 C101.421929,17.0729774 101.811264,17.0181001 102.186922,16.9085732 C102.561896,16.7985908 102.896295,16.6435226 103.189436,16.4420022 C103.482121,16.2409372 103.715767,15.9847672 103.889919,15.6734922 C104.063616,15.3626725 104.15092,14.9969756 104.15092,14.575946 L104.15092,13.6979091 L103.134729,13.6979091 Z M104.15092,17.8685845 L104.095984,17.8685845 C103.638037,18.5819895 103.028961,19.0943295 102.269211,19.4051491 C101.509233,19.7161965 100.707769,19.8717201 99.8657296,19.8717201 C99.2432043,19.8717201 98.6432458,19.7847362 98.066538,19.6112237 C97.4896022,19.4374835 96.9815066,19.1769871 96.5417954,18.8290513 C96.1023121,18.4817986 95.7544638,18.0518884 95.4982505,17.5393206 C95.2415813,17.027436 95.1137026,16.4328939 95.1137026,15.755922 C95.1137026,14.9876397 95.2552582,14.3384479 95.539509,13.807436 C95.823304,13.2771071 96.2076239,12.8383164 96.6931527,12.4903806 C97.1782255,12.1433556 97.7321386,11.8730678 98.3548919,11.681111 C98.9774172,11.4889266 99.6229653,11.3475208 100.291536,11.255755 C100.959879,11.1644446 101.627994,11.1095673 102.296565,11.091123 C102.965135,11.0731342 103.58333,11.0637982 104.15092,11.0637982 C104.15092,10.3321767 103.54777,8.67629376 101.51402,8.67629376 C100.836331,8.67629376 100.218137,8.81815502 99.6596649,9.10164982 C99.1009649,9.38560005 98.6022152,9.77406763 98.1627319,10.2679634 L95.9650875,8.01799376 C96.7344112,7.30458875 97.6311577,6.76902265 98.6571506,6.41266171 C99.6824596,6.05584535 100.744696,5.87755102 101.843632,5.87755102 C103.052211,5.87755102 104.04538,6.02829284 104.823821,6.33023189 C105.602035,6.63194323 106.225016,7.07574354 106.691853,7.6609497 C107.15869,8.24683897 107.483516,8.96457041 107.667014,9.81505484 C107.850056,10.665767 107.941691,11.6492321 107.941691,12.7647671 L107.941691,19.542684 L104.15092,19.542684 L104.15092,17.8685845 Z" id="Fill-14"></path>
                    <path d="M46.7172012,20.4548105 C43.1804856,20.4548105 40.303207,17.632252 40.303207,14.1628007 L40.303207,6.4606414 L44.1123913,6.4606414 L44.1123913,14.1628007 C44.1123913,15.5142034 45.2809146,16.6136726 46.7172012,16.6136726 C48.1534877,16.6136726 49.322011,15.5142034 49.322011,14.1628007 L49.322011,6.4606414 L53.1311953,6.4606414 L53.1311953,14.1628007 C53.1311953,17.632252 50.2539168,20.4548105 46.7172012,20.4548105" id="Fill-15"></path>
                </g>
            </g>
        </g>
    </g>
</svg>